<svg
    xmlns="http://www.w3.org/2000/svg"
    width="80"
    height="80"
    viewBox="0 0 80 80"
    fill="none"
    >
    <g clip-path="url(#clip0_7826_3911)">
        <path
        d="M63.5671 16.4294C57.6276 14.4496 48.4076 15.8195 42.8005 19.0949C40.5392 16.4448 38.186 12.4341 39.9969 7.00133C39.9969 7.00133 32.9258 9.35835 16.4267 25.8575C6.0406 36.2436 6.04061 53.1838 16.4267 63.5699C26.8127 73.9559 43.753 73.9559 54.139 63.5699C65.9241 51.7848 65.9241 47.0707 72.9952 39.9996C69.1754 36.1798 63.8474 36.9739 60.6945 36.1695C62.047 29.984 59.7981 20.1984 63.5671 16.4294ZM49.425 30.5716C57.2634 38.41 57.2634 51.0174 49.425 58.8558C41.5866 66.6942 28.9791 66.6942 21.1407 58.8558C13.3023 51.0174 13.3023 38.41 21.1407 30.5716C28.9791 22.7332 41.5866 22.7332 49.425 30.5716Z"
        fill="#FF7D7B"
        />
    </g>
    <defs>
        <clipPath id="clip0_7826_3911">
        <rect width="80" height="80" fill="white" />
        </clipPath>
    </defs>
</svg>