<svg
    xmlns="http://www.w3.org/2000/svg"
    width="14"
    height="11"
    viewBox="0 0 14 11"
    fill="none"
    >
    <g clip-path="url(#clip0_7826_3077)">
        <path
        d="M11.8593 0.907627C10.9531 0.483617 9.98409 0.175465 8.97102 0C8.84661 0.22494 8.70125 0.527488 8.60104 0.768165C7.52412 0.60621 6.45712 0.60621 5.40001 0.768165C5.29981 0.527488 5.15116 0.22494 5.02563 0C4.01147 0.175465 3.04136 0.484749 2.13511 0.909872C0.307208 3.67208 -0.188307 6.36567 0.0594514 9.02102C1.27181 9.92638 2.44674 10.4764 3.60184 10.8363C3.88704 10.4437 4.14139 10.0265 4.36052 9.58673C3.94319 9.42816 3.54347 9.23246 3.16579 9.00528C3.26599 8.93105 3.364 8.85344 3.45869 8.77358C5.76228 9.85103 8.26519 9.85103 10.5413 8.77358C10.6371 8.85344 10.7351 8.93105 10.8342 9.00528C10.4554 9.23358 10.0546 9.42927 9.63723 9.58787C9.85635 10.0265 10.1096 10.4449 10.3959 10.8374C11.5521 10.4775 12.7281 9.92751 13.9405 9.02102C14.2312 5.94279 13.4439 3.27394 11.8593 0.907627ZM4.67435 7.388C3.98284 7.388 3.41574 6.74243 3.41574 5.95628C3.41574 5.17014 3.97073 4.52345 4.67435 4.52345C5.378 4.52345 5.94508 5.169 5.93297 5.95628C5.93406 6.74243 5.378 7.388 4.67435 7.388ZM9.3256 7.388C8.63408 7.388 8.06699 6.74243 8.06699 5.95628C8.06699 5.17014 8.62195 4.52345 9.3256 4.52345C10.0292 4.52345 10.5963 5.169 10.5842 5.95628C10.5842 6.74243 10.0292 7.388 9.3256 7.388Z"
        fill="#606060"
        />
    </g>
    <defs>
        <clipPath id="clip0_7826_3077">
        <rect width="14" height="10.8828" fill="white" />
        </clipPath>
    </defs>
</svg>