<svg
    xmlns="http://www.w3.org/2000/svg"
    width="16"
    height="16"
    viewBox="0 0 16 16"
    fill="none"
    >
    <path
        d="M8.00065 1.33301C4.32465 1.33301 1.33398 4.32367 1.33398 7.99967C1.33398 11.6757 4.32465 14.6663 8.00065 14.6663C11.6767 14.6663 14.6673 11.6757 14.6673 7.99967C14.6673 4.32367 11.6767 1.33301 8.00065 1.33301ZM13.288 7.33301H11.4453C11.3631 5.87384 10.9548 4.45165 10.2507 3.17101C11.0668 3.55237 11.7732 4.13394 12.3043 4.86161C12.8353 5.58929 13.1737 6.43944 13.288 7.33301ZM8.35398 2.68434C9.04398 3.59367 9.97198 5.20434 10.1053 7.33301H6.02065C6.11332 5.60234 6.68332 3.98101 7.65465 2.68367C7.76932 2.67701 7.88398 2.66634 8.00065 2.66634C8.11998 2.66634 8.23665 2.67701 8.35398 2.68434ZM5.79265 3.15101C5.13665 4.41167 4.75798 5.84101 4.68732 7.33301H2.71332C2.8285 6.43157 3.17174 5.57441 3.71058 4.84262C4.24942 4.11083 4.96604 3.5286 5.79265 3.15101ZM2.71332 8.66634H4.69598C4.78665 10.2523 5.13932 11.6517 5.73332 12.8197C4.92145 12.437 4.21914 11.8558 3.69129 11.1299C3.16344 10.4039 2.82709 9.55665 2.71332 8.66634ZM7.63398 13.315C6.69998 12.183 6.14865 10.597 6.02798 8.66634H10.1033C9.96465 10.515 9.35865 12.1303 8.36798 13.3143C8.24665 13.3223 8.12532 13.333 8.00065 13.333C7.87665 13.333 7.75598 13.3223 7.63398 13.315ZM10.308 12.8003C10.9447 11.6043 11.3333 10.1997 11.4353 8.66634H13.2873C13.1748 9.54919 12.8433 10.3899 12.3229 11.1119C11.8026 11.8339 11.1099 12.4144 10.308 12.8003Z"
        fill="#606060"
    />
</svg>